<svg id="Layer_2" xmlns="http://www.w3.org/2000/svg" version="1.1" viewBox="33.15 15.55 93.72 116.35">
  <!-- Generator: Adobe Illustrator 29.3.1, SVG Export Plug-In . SVG Version: 2.1.0 Build 151)  -->
  <defs>
    <style>
      .st0 {
        fill: #fff;
      }

      .st1 {
        fill: #a700ff;
      }

      .st2 {
        fill: #00fc47;
      }
    </style>
  </defs>
  <path class="st1" d="M77.14,42.38c-.92,1.7-2.09,3.19-3.5,4.47-1.26,1.14-1.67,2.95-.86,4.45l6.7,12.41c1.33,2.47-.45,5.47-3.26,5.47h-8.9c-1.41,0-2.69-.8-3.32-2.06l-6.51-13.08c-.63-1.26-1.91-2.06-3.32-2.06h0c-2.05,0-3.71,1.66-3.71,3.71v9.77c0,2.05-1.66,3.71-3.71,3.71h-8.57c-2.05,0-3.71-1.66-3.71-3.71V19.29c0-2.05,1.66-3.71,3.71-3.71h19.26c4.1,0,7.55.46,10.32,1.39,2.78.93,5.02,2.18,6.72,3.75,1.7,1.58,2.92,3.44,3.64,5.59.73,2.15,1.09,4.43,1.09,6.83,0,3.6-.69,6.68-2.06,9.23ZM56.15,39.6c2.55,0,4.37-.48,5.44-1.43,1.08-.95,1.61-2.38,1.61-4.28s-.54-3.33-1.61-4.28c-1.08-.95-2.89-1.43-5.44-1.43h-2c-2.05,0-3.71,1.66-3.71,3.71v3.99c0,2.05,1.66,3.71,3.71,3.71h2Z"/>
  <path class="st0" d="M85.96,57.09c.75-.6,1.63-1.31,2.63-2.14,1-.83,2.05-1.69,3.15-2.59l3.3-2.7c1.1-.9,2.13-1.75,3.08-2.55,1.9-1.55,3.52-2.93,4.84-4.13,1.33-1.2,2.4-2.31,3.23-3.34.83-1.03,1.41-2.03,1.76-3,.35-.98.53-1.99.53-3.04,0-2.8-1.2-4.2-3.6-4.2-1.35,0-2.4.43-3.15,1.28s-1.25,2.3-1.5,4.35l-15.39-1.43c.6-5.56,2.68-9.88,6.23-12.99,3.55-3.1,8.41-4.68,14.56-4.73,6.11,0,10.79,1.49,14.04,4.47,3.25,2.98,4.88,6.94,4.88,11.9,0,1.9-.21,3.63-.64,5.18-.43,1.55-1.03,2.99-1.8,4.32-.78,1.33-1.71,2.62-2.82,3.87-1.1,1.25-2.3,2.5-3.6,3.75-1.55,1.45-3.02,2.77-4.39,3.94-1.38,1.18-2.49,2.09-3.34,2.74h17.49l-1.35,13.14h-38.14v-12.09Z"/>
  <path class="st2" d="M33.16,84.23c0-3.28,2.66-5.93,5.93-5.93h16.07c9.36.05,16.35,2.33,20.98,6.83,4.63,4.5,6.94,11.04,6.94,19.59-.05,8.81-2.45,15.54-7.21,20.19-4.75,4.65-11.66,6.98-20.72,6.98h-16.07c-3.28,0-5.93-2.66-5.93-5.93v-41.74ZM55.76,117.63c3.45,0,5.99-1.08,7.62-3.23,1.63-2.15,2.44-5.31,2.44-9.46.05-3.9-.7-6.93-2.25-9.08-1.55-2.15-4.15-3.25-7.81-3.3h0c-3.28,0-5.93,2.66-5.93,5.93v13.21c0,3.28,2.66,5.93,5.93,5.93h0Z"/>
  <path class="st0" d="M87.35,117.82c.75-.6,1.63-1.31,2.63-2.14,1-.83,2.05-1.69,3.15-2.59l3.3-2.7c1.1-.9,2.13-1.75,3.08-2.55,1.9-1.55,3.52-2.93,4.84-4.13,1.33-1.2,2.4-2.31,3.23-3.34.83-1.03,1.41-2.03,1.76-3,.35-.98.53-1.99.53-3.04,0-2.8-1.2-4.2-3.6-4.2-1.35,0-2.4.43-3.15,1.28s-1.25,2.3-1.5,4.35l-15.39-1.43c.6-5.56,2.68-9.88,6.23-12.99,3.55-3.1,8.41-4.68,14.56-4.73,6.11,0,10.79,1.49,14.04,4.47,3.25,2.98,4.88,6.94,4.88,11.9,0,1.9-.21,3.63-.64,5.18-.43,1.55-1.03,2.99-1.8,4.32-.78,1.33-1.71,2.62-2.82,3.87-1.1,1.25-2.3,2.5-3.6,3.75-1.55,1.45-3.02,2.77-4.39,3.94-1.38,1.18-2.49,2.09-3.34,2.74h17.49l-1.35,13.14h-38.14v-12.09Z"/>
</svg>