<svg id="Layer_2" xmlns="http://www.w3.org/2000/svg" version="1.1" viewBox="18.77 25.27 122.43 34.07">
  <!-- Generator: Adobe Illustrator 29.3.1, SVG Export Plug-In . SVG Version: 2.1.0 Build 151)  -->
  <defs>
    <style>
      .st0 {
        fill: #a700ff;
      }

      .st1 {
        fill: #00fc47;
      }
    </style>
  </defs>
  <path class="st0" d="M45.88,42.3c-.58,1.08-1.32,2.03-2.22,2.84-.8.72-1.06,1.87-.55,2.82l4.25,7.88c.85,1.57-.29,3.47-2.07,3.47h-5.65c-.89,0-1.71-.51-2.11-1.3l-4.13-8.3c-.4-.8-1.21-1.3-2.11-1.3h0c-1.3,0-2.35,1.05-2.35,2.35v6.2c0,1.3-1.05,2.35-2.35,2.35h-5.44c-1.3,0-2.35-1.05-2.35-2.35v-29.31c0-1.3,1.05-2.35,2.35-2.35h12.22c2.6,0,4.79.29,6.55.88,1.76.59,3.18,1.38,4.26,2.38,1.08,1,1.85,2.18,2.31,3.55.46,1.37.69,2.81.69,4.34,0,2.29-.44,4.24-1.31,5.86ZM32.57,40.54c1.62,0,2.77-.3,3.45-.91.68-.6,1.02-1.51,1.02-2.72s-.34-2.11-1.02-2.72-1.83-.91-3.45-.91h-1.27c-1.3,0-2.35,1.05-2.35,2.35v2.53c0,1.3,1.05,2.35,2.35,2.35h1.27Z"/>
  <path d="M51.48,51.64c.48-.38,1.03-.83,1.67-1.36.64-.52,1.3-1.07,2-1.64l2.1-1.72c.7-.57,1.35-1.11,1.95-1.62,1.21-.98,2.23-1.86,3.07-2.62.84-.76,1.52-1.47,2.05-2.12.52-.65.9-1.29,1.12-1.91.22-.62.33-1.26.33-1.93,0-1.78-.76-2.67-2.29-2.67-.86,0-1.52.27-2,.81s-.79,1.46-.95,2.76l-9.77-.91c.38-3.53,1.7-6.27,3.95-8.24,2.26-1.97,5.34-2.97,9.24-3,3.87,0,6.84.94,8.91,2.83,2.06,1.89,3.1,4.41,3.1,7.55,0,1.21-.13,2.3-.4,3.29s-.65,1.9-1.14,2.74c-.49.84-1.09,1.66-1.79,2.45-.7.79-1.46,1.59-2.29,2.38-.98.92-1.91,1.75-2.79,2.5-.87.75-1.58,1.33-2.12,1.74h11.1l-.86,8.34h-24.2v-7.67Z"/>
  <path class="st1" d="M80.55,29.06c0-2.08,1.69-3.76,3.76-3.76h10.2c5.94.03,10.38,1.48,13.32,4.34,2.94,2.86,4.41,7,4.41,12.43-.03,5.59-1.56,9.86-4.57,12.82-3.02,2.95-7.4,4.43-13.15,4.43h-10.2c-2.08,0-3.76-1.69-3.76-3.76v-26.49ZM94.89,50.26c2.19,0,3.8-.68,4.84-2.05s1.55-3.37,1.55-6c.03-2.48-.44-4.4-1.43-5.76s-2.64-2.06-4.95-2.1h0c-2.08,0-3.76,1.69-3.76,3.76v8.38c0,2.08,1.69,3.76,3.76,3.76h0Z"/>
  <path d="M116.14,51.64c.48-.38,1.03-.83,1.67-1.36.64-.52,1.3-1.07,2-1.64l2.1-1.72c.7-.57,1.35-1.11,1.95-1.62,1.21-.98,2.23-1.86,3.07-2.62s1.52-1.47,2.05-2.12c.52-.65.9-1.29,1.12-1.91s.33-1.26.33-1.93c0-1.78-.76-2.67-2.29-2.67-.86,0-1.52.27-2,.81s-.79,1.46-.95,2.76l-9.77-.91c.38-3.53,1.7-6.27,3.95-8.24,2.25-1.97,5.34-2.97,9.24-3,3.87,0,6.84.94,8.91,2.83,2.06,1.89,3.1,4.41,3.1,7.55,0,1.21-.14,2.3-.4,3.29-.27.98-.65,1.9-1.14,2.74-.49.84-1.09,1.66-1.79,2.45-.7.79-1.46,1.59-2.29,2.38-.98.92-1.91,1.75-2.79,2.5-.87.75-1.58,1.33-2.12,1.74h11.1l-.86,8.34h-24.2v-7.67Z"/>
</svg>