<svg id="Layer_2" xmlns="http://www.w3.org/2000/svg" version="1.1" viewBox="25.37 13.23 119.38 130.05">
  <!-- Generator: Adobe Illustrator 29.3.1, SVG Export Plug-In . SVG Version: 2.1.0 Build 151)  -->
  <defs>
    <style>
      .st0 {
        fill: #fff;
      }

      .st1 {
        fill: #a700ff;
      }

      .st2 {
        fill: #00fc47;
      }
    </style>
  </defs>
  <path class="st0" d="M37.09,56.43c.17-.4.32-.79.43-1.21s.18-.84.23-1.27l-1.47.2c.04.1.07.2.11.31.07.19.17.35.34.45.16.09.4.13.58.08.36-.12.67-.53.52-.92-.04-.1-.07-.2-.11-.31-.13-.35-.44-.59-.82-.54-.16.02-.32.09-.43.21l-.12.15c-.07.12-.1.24-.1.38,0,.04,0,.08-.01.12l.03-.2c-.09.67-.27,1.33-.53,1.95l.08-.18-.02.04c-.08.19-.13.37-.08.58.05.17.18.36.34.45.17.09.38.14.58.08.17-.06.37-.17.45-.34h0Z"/>
  <path class="st0" d="M39.06,55.36c.2.08-.03-.02-.07-.03-.05-.02-.1-.05-.15-.07-.11-.06-.22-.12-.33-.18-.2-.12-.4-.24-.59-.38-.03-.02-.18-.13-.02-.01-.05-.04-.1-.08-.15-.12-.09-.07-.18-.15-.26-.23-.19-.17-.36-.35-.52-.55s-.49-.26-.73-.19c-.27.07-.44.27-.52.52-.3.85-.4,1.79-.29,2.69.04.31.16.56.46.69s.58.04.82-.16c.08-.06,0,0-.03.02.03-.01.06-.04.08-.06.05-.04.11-.08.17-.11.11-.07.23-.13.36-.19.09-.04,0,0-.04.02.03,0,.06-.03.09-.04.06-.02.13-.04.19-.06.14-.04.28-.08.42-.1.02,0,.14-.02.02,0s0,0,.03,0c.07,0,.13-.01.2-.01.13,0,.27,0,.4,0,.03,0,.07,0,.1,0,.1,0-.15-.03-.05,0,.07.01.13.02.2.04.14.03.28.07.41.12v-1.45c-.19.07-.39.13-.59.17-.09.02-.18.04-.27.05-.05,0-.1.02-.15.02.1,0,.07,0-.01,0-.09,0-.18.02-.27.02-.06,0-.11,0-.17,0-.1,0,0,0,.04.01-.12-.03.04.04.07.06.05.04.05.04,0,0l.06.07s-.08-.18-.03-.04c.04.12-.01-.04-.02-.05-.29-.79-.57-1.58-.86-2.36-.13-.37-.52-.66-.92-.52-.36.12-.67.53-.52.92.16.45.33.91.49,1.36.08.23.17.46.25.7s.16.49.28.71c.16.28.43.51.75.59.25.07.51.06.76.04.52-.04,1.02-.14,1.51-.31.3-.11.57-.38.55-.72s-.23-.61-.55-.72c-1.37-.48-2.9-.14-4.01.77l1.28.53c-.05-.41-.06-.82-.02-1.23,0-.05,0-.1.02-.15-.02.1-.01.08,0,0,.02-.1.04-.2.06-.29.05-.21.11-.41.18-.61l-1.25.33c.75.87,1.7,1.52,2.76,1.96.17.07.43.01.58-.08.16-.09.3-.27.34-.45.04-.19.03-.41-.08-.58s-.26-.26-.45-.34h0Z"/>
  <path class="st0" d="M45,62.26c-.02-.2-.04-.4-.04-.6,0-.09,0-.19,0-.28,0-.03,0-.06,0-.08v.09s.01-.13.02-.15c.02-.07.06-.15.07-.22-.01.06-.06.14,0,.03.02-.03.04-.07.06-.1.01-.02.08-.14.02-.03s0,0,.03-.03c.02-.02.03-.03.05-.05.04-.04.02-.02-.06.05.02,0,.08-.05.1-.06.01,0,.03-.02.04-.02.05-.02.03-.02-.07.03,0,0,.11-.03.12-.03.13-.03.03.01-.03,0,.03,0,.09,0,.12,0,.04,0,.08,0,.12,0,.16,0-.16-.04,0,0,.08.02.16.04.24.07.13.04-.09-.05,0,0,.04.02.08.04.12.06.08.04.16.09.23.13.17.11.32.22.48.34l.18-1.37c-.81.21-1.63.39-2.43.62-.55.16-1,.58-1.01,1.18,0,.51.29.99.74,1.21s.96.21,1.42.04c.37-.14.74-.32,1.07-.54.4-.27.71-.61.87-1.08.17-.49.05-1.04-.28-1.43-.3-.34-.75-.5-1.16-.67-.44-.19-.88-.39-1.32-.58-.19-.08-.37-.13-.58-.08-.17.05-.36.18-.45.34-.17.32-.11.86.27,1.03.62.27,1.24.53,1.85.81.06.03.11.05.16.08.03.02.07.04.1.06.03.02.11.06.02,0-.09-.04-.02,0,0,.02.07.06-.08-.13-.03-.05.01.03.06.12.01,0-.05-.13,0,.02,0,.03-.06-.06,0-.17-.01-.07,0,.01,0,.07,0,.09-.03-.09.03-.16,0-.05,0,.03-.02.06-.03.08-.03.09.07-.14.02-.06-.02.02-.03.05-.05.08-.04.08.1-.12.04-.04-.03.03-.05.06-.08.09-.02.02-.05.04-.07.07-.11.11.11-.07.02-.01-.05.04-.11.07-.16.11-.12.07-.24.14-.36.2-.07.04-.14.07-.21.11-.03.02-.06.03-.09.04-.09.05.13-.05.04-.02-.07.02-.13.05-.2.06-.03,0-.15.02-.02,0,.13-.02,0,0-.04,0-.02,0-.17-.02-.04,0,.12.02.02,0-.01,0-.18-.05.13.06-.03-.01-.08-.04.11.1.05.03s.08.14.04.06c-.01-.03-.06-.11,0,0,.08.16-.04-.15.01.03.02.06,0,.1-.02.15l-.02.05s.03-.05-.01,0l-.03.04c-.09.06-.11.08-.07.05.16-.08-.15.04.02-.01.08-.03.16-.04.24-.06.75-.19,1.49-.38,2.24-.57.29-.07.5-.34.54-.62.04-.32-.11-.56-.36-.75-.4-.29-.8-.57-1.28-.71-.53-.16-1.12-.13-1.6.14-.46.26-.77.72-.91,1.22s-.12,1.01-.07,1.51c.02.2.07.38.22.53.13.13.34.23.53.22.37-.02.79-.33.75-.75h0Z"/>
  <path class="st0" d="M55.72,66.64c.15-.97-.22-1.81-.78-2.58-.24-.32-.49-.63-.69-.98s-.28-.54-.28-.86l-1.13.65c1.61.72,3.29,1.16,5.05,1.33l-.53-1.28c-.75.62-1.51,1.23-2.26,1.85l1.18.15c-.56-.95-1.26-1.83-2.09-2.57l-1.06,1.06c1.09.85,2.33,1.47,3.69,1.74l-.18-1.37c-.91.41-1.7.95-1.96,1.96-.04.16-.04.09.06.03l.54.07-.05-.05c-.07-.1-.04-.04-.02-.02-.18-.22-.33-.47-.48-.71-.27-.43-.52-.89-.73-1.36-.08-.18-.16-.36-.23-.59-.01-.05-.03-.1-.04-.15,0-.02-.02-.15,0-.03-.01-.15-.01-.06,0-.02.02-.09.03-.09,0-.03l-.03.05.05-.05c-.05.04-.06.05-.01.02.11-.04-.1.02.01,0,.03,0,.17-.01.06-.01.06,0,.12,0,.19,0,.2.02.53.1.77.15.55.11,1.1.23,1.64.34.21.04.43.08.63.15,0,0,.19.08.09.03s.08.05.08.05c.03.02.11.09,0,0,.1.08,0-.04-.03-.09.04.07.02.03,0,.02-.04-.02.09-.19-.02,0-.08.13-.08.13-.19.26-.2.24-.4.49-.6.73-.42.51-.84,1.02-1.26,1.54-.26.31-.31.75,0,1.06.26.26.8.31,1.06,0,.46-.56.92-1.12,1.38-1.68s1.15-1.18,1.13-1.98c-.02-.74-.64-1.2-1.3-1.39s-1.33-.28-1.99-.42c-.76-.16-1.57-.43-2.32-.09s-.95,1.13-.76,1.86c.17.65.5,1.29.82,1.87.15.27.32.54.49.8.19.28.38.61.64.82.42.35,1.02.35,1.43-.03.19-.18.31-.4.39-.65.02-.07.03-.13.05-.2.01-.04.1-.26.03-.13.03-.06.06-.11.1-.17-.08.13.05-.05.07-.07.04-.04.08-.08.12-.11.07-.05.07-.06,0,0,.04-.03.08-.05.11-.08.25-.16.53-.29.8-.41.58-.26.43-1.25-.18-1.37-.3-.06-.59-.13-.88-.23s-.5-.17-.71-.27c-.26-.12-.52-.26-.77-.41-.12-.07-.23-.15-.35-.22-.07-.05-.14-.09-.2-.14-.01-.01-.18-.14-.11-.08-.32-.25-.75-.31-1.06,0-.28.28-.3.79,0,1.06.77.7,1.34,1.38,1.85,2.26.26.45.81.45,1.18.15.75-.62,1.51-1.23,2.26-1.85.23-.19.26-.57.16-.82-.12-.29-.38-.43-.69-.46-1.4-.13-3-.55-4.29-1.12-.25-.11-.51-.15-.76,0-.23.13-.37.38-.37.65,0,.87.43,1.6.93,2.28.23.31.46.61.65.95.1.19.12.21.18.42.01.05.03.1.04.15.02.09.02.1,0,.03,0,.03-.01.3,0,.2-.06.39.1.83.52.92.36.08.86-.11.92-.52h0Z"/>
  <path class="st0" d="M56.35,66.42s-.01-.09-.02-.14l.03.2c-.06-.47-.06-.95,0-1.42l-.03.2c.05-.36.14-.72.26-1.06.13-.37-.15-.84-.52-.92-.42-.1-.78.13-.92.52-.35.97-.41,2.01-.24,3.03.03.17.2.36.34.45.16.09.4.13.58.08s.36-.17.45-.34c.1-.19.11-.37.08-.58h0Z"/>
  <path class="st2" d="M77.32,41.71c-4.42-1.35-8.84-2.7-13.26-4.05-3.45-1.05-8.16-1.95-10.28-3.5l4.31,4.31.17.5v6.38c-.56,3.43-5.57,3.45-.18,2.41,1.16-.22,1.93-.34,3.09-.43,2.68-.2,5.37-.2,7.44.97,5.04,2.85,7.13,11.67,8.87,16.74,5.53,16.1,8.82,32.77,9.69,49.77l20.49-8.49c-12.39-14.26-26.02-28.27-44.84-33.34l-6.38,23.14c18.41,3.54,37.09-9.88,35.24-29.76-.55-5.93-4.14-11.04-10.4-11.79-5.41-.64-12.15,2.63-13.17,8.6-.79,4.64-3.91,7.15-7.96,10.61-4.77,4.07-9.46,8.2-12.75,13.64-8.01,13.23-3.11,28.65,8.41,37.9,5.1,4.09,11.22,8.59,17.69,10.04,8.76,1.97,18.12-3.15,20.17-12.07,1.93-8.43-3.54-15.16-9.47-20.31s-11.67-9.63-17.74-14.14l-9.25,21.93c5.28,2.03,10.48,5.58,14.65,9.78,4.81,4.84,7.05,11.52,12.16,16.15,4.49,4.07,11.31,5.15,16.66,2.01,4.39-2.57,6.37-7.03,7.41-11.79,1.87-8.53,3.61-17.09,5.41-25.63-5.88,2.39-11.75,4.78-17.63,7.17,5.05,3.75,10.1,7.5,15.15,11.25,4.21,3.12,11.08,1.59,14.54-1.88,3.91-3.91,4.31-9.76,1.88-14.54-11.72-22.98-24.65-45.31-38.75-66.92-3.54-5.42-10.63-7.69-16.42-4.31-5.39,3.15-7.86,10.97-4.31,16.42,14.1,21.61,27.03,43.94,38.75,66.92,5.47-5.47,10.95-10.95,16.42-16.42-5.05-3.75-10.1-7.5-15.15-11.25-6.06-4.5-16.15.15-17.63,7.17-1.03,4.88-2.06,9.76-3.09,14.65-.51,2.44-1.03,4.88-1.54,7.32-.26,1.22-.51,2.44-.77,3.66-.79,2.71-.4,2.49,1.19-.68l5.3-3.09-1.08.23h6.38l-1.04-.37,5.3,3.09c-1.44-1.19-3.44-5.47-5.38-8.08-2.7-3.63-5.58-7.09-8.94-10.13-6.86-6.19-14.49-10.58-23.07-13.89-5.5-2.12-12.12,1.89-14.16,6.95-2.39,5.94-.03,11.31,4.91,14.99,3.24,2.41,6.4,4.9,9.49,7.49,1.6,1.34,3.19,2.68,4.74,4.07.85.72,1.66,1.47,2.45,2.25.53-6.73,3.06-10.57,7.59-11.52-3.8-3.5-11.03-5.86-11.35-10.26-.05-.67,1.28-2.81,2.63-4.31,2.34-2.61,5.17-4.74,7.8-7.02,6.29-5.45,12.12-12.26,13.56-20.71-7.86-1.06-15.71-2.13-23.57-3.19.25,2.67.37,3.88-1.19,5.4-1.17,1.15-3,1.34-3.68,1.21-6.36-1.22-12.95,1.79-14.76,8.38-1.72,6.24,2.1,13.07,8.38,14.76,14.53,3.91,24.73,16.21,34.25,27.17,6.74,7.76,21,1.63,20.49-8.49-.82-16.01-3.31-32.01-7.78-47.41-4.09-14.09-9.03-32.02-22.67-39.83-6.58-3.76-14.48-4.83-21.92-4.03-8.08.87-17.01,2.53-21.66,10.01-6.04,9.73-.09,20.32,9.74,23.9,7.85,2.87,16.07,4.95,24.06,7.39,14.8,4.52,21.13-18.64,6.38-23.14h0Z"/>
  <path class="st2" d="M59.28,68.44v1.83c-.06,1.65.28,3.19,1.03,4.62.48,1.49,1.31,2.78,2.48,3.86,1.09,1.17,2.37,2,3.86,2.48,1.43.75,2.97,1.1,4.62,1.03l3.19-.43c2.03-.57,3.8-1.6,5.3-3.09l1.88-2.43c1.09-1.87,1.63-3.89,1.64-6.06v-1.83c.06-1.65-.28-3.19-1.03-4.62-.48-1.49-1.31-2.78-2.48-3.86-1.09-1.17-2.37-2-3.86-2.48-1.43-.75-2.97-1.1-4.62-1.03l-3.19.43c-2.03.57-3.8,1.6-5.3,3.09l-1.88,2.43c-1.09,1.87-1.63,3.89-1.64,6.06h0Z"/>
  <path class="st2" d="M71.6,110.16c-3.92-3.1-7.47-6.51-10.71-10.32-7.7-9.05-23.92.57-20.06,11.68,1.69,4.87,4,8.91,7.59,12.64l14.54-18.85c-.54-.41-1.77-2.6-2.23-4.44-.13-.53-.34-1.11-.21-2.87-.23.94-.18.66.16-.82.23-.88.52-1.74.87-2.57,2.31-6.06-2.55-13.16-8.38-14.76-6.75-1.86-12.45,2.3-14.76,8.38-5.4,14.2.92,29.03,12.44,37.81,4.69,3.58,12.27,1.2,15.48-3.09,3.59-4.81,3.3-11.35-.94-15.76-.62-.64-1.33-1.79-1.42-2.05-6.69,3.89-13.37,7.78-20.06,11.68,3.24,3.81,6.79,7.22,10.71,10.32,5.08,4.01,12.01,4.96,16.97,0,4.17-4.17,5.11-12.93,0-16.97h0Z"/>
  <path class="st2" d="M44.74,70.97c2.37-.73,4.21-1.81,5.99-3.54l-5.01-1.32c.94,4.15,2.35,10.24,7.42,10.84,4.56.53,8.69-3.37,10.6-7.07,1.56-3.02-2.17-5.99-4.71-3.64-1.7,1.57-4.07,4.77-6.12,5.66-2.5,1.09-3.71-1.54-5.55-3.52-1.96-2.09-6.1.07-5.01,2.92,1.65,4.31,3.29,8.62,4.94,12.93,1.36,3.56,7.14,2.04,5.79-1.6-2.06-5.53-4.87-10.42-8.6-14.99-1.48-1.81-4.44-.67-5.01,1.32-3.6,12.51-6.91,25.63-2.12,38.3,1.21,3.2,5.58,2.64,5.89-.8,1-10.99,1.99-21.98,2.99-32.97l-5.89.8,2.33,6.29c1.33,3.59,7.13,2.04,5.79-1.6l-2.33-6.29c-1.19-3.22-5.58-2.63-5.89.8-1,10.99-1.99,21.98-2.99,32.97l5.89-.8c-4.42-11.69-1.2-23.58,2.12-35.11l-5.01,1.32c3.05,3.73,5.38,7.83,7.06,12.34l5.79-1.6c-1.65-4.31-3.29-8.62-4.94-12.93l-5.01,2.92c2.24,2.39,5.47,7.81,9.41,6.86s7.89-6.35,10.75-9.01l-4.71-3.64c-.89,1.72-2.07,3.81-4.24,3.44s-2.37-3.81-2.81-5.77c-.51-2.25-3.46-2.84-5.01-1.32-.89,1.05-2,1.71-3.34,2-3.68,1.14-2.11,6.93,1.6,5.79h0Z"/>
  <path class="st2" d="M44.08,74.85c-3.33-1.63-7.02-3.1-10.67-1.46s-5.12,5.47-5.83,8.97h5.79c-1.07-4.1,1.73-7.86,5.98-7.95,3.86-.08,3.87-6.08,0-6-8.17.17-13.84,7.62-11.77,15.55.72,2.76,5.18,2.96,5.79,0,.32-1.57.82-4.26,2.43-5.06s3.78.42,5.25,1.14c3.46,1.69,6.5-3.48,3.03-5.18h0Z"/>
  <path class="st2" d="M111.82,124.94c8.21-2.31,16.43-4.61,24.64-6.92,2.69-.76,2.69-4,.72-5.48-8.64-6.47-15.67-14.59-21.01-23.95-1.91-3.35-7.1-.34-5.18,3.03,5.87,10.31,13.67,19,23.16,26.11l.72-5.48c-8.21,2.31-16.43,4.61-24.64,6.92-3.71,1.04-2.13,6.83,1.6,5.79h0Z"/>
  <path class="st2" d="M127.38,118.9c3.53.46,7.03.61,10.58.44,2.6-.12,3.95-3.19,2.12-5.12-3.78-3.99-6.24-8.87-9.85-12.92-2.95-3.31-7.2-4.62-11.22-2.46l3.64,4.71c1.11-1.42,2.23-2.83,3.34-4.25l-5.01-1.32c.1.61.19,1.21.29,1.82l5.01-2.92c-1.22-1.01-2.33-1.66-3.81-2.23-3.61-1.39-5.17,4.41-1.6,5.79l1.16.68c2.39,1.99,5.49.08,5.01-2.92-.1-.61-.19-1.21-.29-1.82-.33-2.12-3.68-3.02-5.01-1.32-1.11,1.42-2.23,2.83-3.34,4.25-2.02,2.57.44,6.43,3.64,4.71s6.06,4.76,7.42,6.69c1.93,2.74,4.08,5.31,6.38,7.75l2.12-5.12c-3.56.17-7.05.02-10.58-.44-3.82-.5-3.78,5.5,0,6h0Z"/>
  <path class="st2" d="M124.42,96.24c-.16-.87-.33-1.74-.49-2.6-.29-1.55-2.24-2.57-3.69-2.1-1.65.53-2.41,2.03-2.1,3.69.16.87.33,1.74.49,2.6.29,1.55,2.24,2.57,3.69,2.1,1.65-.53,2.41-2.03,2.1-3.69h0Z"/>
  <path class="st2" d="M130.26,101.47c-4.28-7.63-9.44-14.62-15.45-20.99-2.68-2.84-6.75,1.35-4.24,4.24,1.67,1.92,3.34,3.85,5.01,5.77,2.29,2.64,6.31-.73,4.71-3.64-1.79-3.23-3.57-6.47-5.36-9.7s-7.05-.36-5.18,3.03,3.57,6.47,5.36,9.7l4.71-3.64c-1.67-1.92-3.34-3.85-5.01-5.77l-4.24,4.24c5.67,6.01,10.47,12.57,14.51,19.77,1.89,3.37,7.07.35,5.18-3.03h0Z"/>
  <path class="st2" d="M42.05,133.65c2.67-.86,5.37-1.65,8.11-2.29.95-.22,6.4-2.02,7.09-1.54l-1.49-2.59v.44c.28-.71.57-1.41.86-2.12-.08.1-3.75,0-4.31.03-1.74.12-3.48.23-5.22.35-3.82.26-3.9,5.93,0,6,4.3.08,8.61.17,12.91.25,3.86.07,3.86-5.93,0-6-4.3-.08-8.61-.17-12.91-.25v6c2.58-.17,18.98.4,14.01-6.52-1.76-2.45-5.34-1.27-7.74-.84-4.38.79-8.68,1.92-12.92,3.29-3.66,1.18-2.09,6.98,1.6,5.79h0Z"/>
  <path class="st2" d="M68.48,142.95c8.88-.27,17.58-1.57,26.14-3.93,3.72-1.02,2.14-6.81-1.6-5.79-8.06,2.22-16.2,3.46-24.55,3.71-3.85.12-3.87,6.12,0,6h0Z"/>
  <path class="st2" d="M81.31,133.06c-1.6-.22-3.11-.28-4.7.14-.74.2-1.49.5-2.17.86-.32.17-.63.35-.92.56-.67.34-.63.39.11.14l1.32.77v.06c.14.5.28,1.01.42,1.51l-.16.62-1.08,1.08.28-.12c1.49-.65,1.83-2.82,1.08-4.1-.9-1.53-2.61-1.73-4.1-1.08-3.27,1.43-2.26,6.22.84,7.11,1.57.45,2.95-.04,4.32-.81,1-.56,1.96-1.12,3.17-.95,1.6.22,3.22-.39,3.69-2.1.38-1.4-.48-3.47-2.1-3.69h0Z"/>
  <path class="st2" d="M66.69,143.16c3.86,0,3.87-6,0-6s-3.87,6,0,6h0Z"/>
  <path class="st2" d="M97.8,141.38c6.94,1.7,9.46-8.81,10.5-13.72h-5.79c.87,3.67-.57,7.13-3.45,9.46s1.27,6.65,4.24,4.24c4.53-3.67,6.32-9.69,4.99-15.3-.67-2.82-5.17-2.9-5.79,0-.37,1.76-.83,3.5-1.46,5.2-.17.46-1.95,4.26-1.67,4.33-3.75-.92-5.35,4.87-1.6,5.79h0Z"/>
  <path class="st1" d="M66.55,18.45c-.96.09-1.91.17-2.87.26-.29.03-.59.1-.8.33-.17.19-.28.39-.31.65-.08.56.27,1.07.81,1.23,1.68.52,3.7-.31,4.5-1.88l-2.1-.57c.08.59.08,1.19,0,1.78l.04-.3c-.02.14-.04.28-.07.43-.06.3-.05.6.11.87.14.23.4.46.67.52.56.13,1.26-.17,1.38-.79.16-.83.22-1.67.11-2.51-.03-.26-.08-.47-.24-.68-.14-.19-.35-.35-.58-.4-.47-.11-1.04.06-1.27.52-.07.14-.16.28-.26.41l.18-.23c-.14.17-.29.33-.47.47l.23-.18c-.2.15-.42.28-.65.38l.27-.11c-.23.1-.47.16-.72.2l.3-.04c-.23.03-.47.03-.7,0l.3.04c-.15-.02-.29-.05-.43-.1l-.3,2.21c.96-.09,1.91-.17,2.87-.26.3-.03.57-.11.8-.33.2-.2.34-.52.33-.8s-.11-.59-.33-.8c-.21-.19-.5-.36-.8-.33h0Z"/>
  <path class="st1" d="M85.14,24.89c-.43-.12-.85-.26-1.27-.43-.04-.02-.37-.15-.18-.07-.1-.04-.2-.09-.29-.13-.2-.09-.39-.18-.58-.28-.8-.41-1.55-.89-2.26-1.44l-.57,2.1c2.18.11,4.34-.02,6.5-.32l-1.42-1.08v-.13c-.02.1-.02.11,0,.03.07-.15-.16.15.05-.07-.04.04-.08.08-.12.12.18-.17-.12.01.12-.08l1.38.79c-.03-.09-.06-.19-.08-.28-.01-.05-.03-.33-.02-.09,0-.18,0-.36,0-.54,0-.13-.04.16.01-.04.03-.1.05-.19.08-.29.06-.22-.09.12.04-.1.05-.09.1-.17.15-.26.24-.38.18-.9-.09-1.25-.3-.39-.72-.47-1.18-.4-1.07.15-2.15.3-3.22.44-.59.08-.96.86-.79,1.38.21.64.76.87,1.38.79,1.07-.15,2.15-.3,3.22-.44l-1.27-1.65c-.61.98-.77,2.24-.4,3.34.18.54.79,1.01,1.38.79.94-.35,1.47-1.06,1.59-2.05.04-.34-.19-.69-.44-.88-.31-.24-.61-.25-.98-.2-.24.03.04,0-.18.02-.14.02-.28.03-.42.05-.24.03-.48.05-.73.07-.51.05-1.01.08-1.52.1-1.01.04-2.03.04-3.04-.01-.47-.02-.98.36-1.08.83-.12.53.1.95.52,1.27,1.52,1.17,3.28,2.04,5.12,2.57.57.16,1.25-.2,1.38-.79s-.18-1.21-.79-1.38h0Z"/>
  <path class="st1" d="M98.95,41.07c.03-.54-.04-1.11-.2-1.63s-.39-1.03-.71-1.47c-.18-.24-.37-.43-.67-.52-.27-.07-.63-.04-.87.11s-.45.39-.52.67-.06.63.11.87c.19.25.34.53.46.82l-.11-.27c.13.32.22.65.27.99l-.04-.3c.03.24.04.48.03.73-.02.28.14.6.33.8s.52.34.8.33c.64-.03,1.09-.49,1.12-1.12h0Z"/>
  <path class="st1" d="M97.12,37.45l-.6-.74c-.1-.11-.22-.19-.36-.23-.13-.07-.28-.1-.43-.1-.15,0-.3.03-.43.1-.14.05-.26.12-.36.23l-.18.23c-.1.18-.15.36-.15.57l.04.3c.05.19.15.36.29.5l.6.74c.1.11.22.19.36.23.13.07.28.1.43.1.15,0,.3-.03.43-.1.14-.05.26-.12.36-.23l.18-.23c.1-.18.15-.36.15-.57l-.04-.3c-.05-.19-.15-.36-.29-.5h0Z"/>
  <path class="st1" d="M96.04,38.97c.29.04.58.1.87.2.08.02.15.05.23.08.2.07-.13-.07,0,0,.13.06.27.13.4.2.12.06.23.13.35.21.07.04.13.09.2.14.19.13-.16-.14.03.02.22.2.44.4.63.63l1.36-1.77c-1.72-.95-3.44-1.9-5.16-2.85-.52-.28-1.25-.14-1.54.4s-.15,1.24.4,1.54c1.72.95,3.44,1.9,5.16,2.85.49.27,1.11.16,1.45-.29s.28-1.04-.09-1.48c-.92-1.08-2.28-1.84-3.69-2.04-.31-.04-.58-.05-.87.11-.23.14-.46.4-.52.67-.12.53.16,1.3.79,1.38h0Z"/>
  <path class="st1" d="M108.59,59.83c.24-1.57-.3-3.02-1.34-4.19-.94-1.05-2.23-1.72-3.47-2.35-.51-.25-1.1-.17-1.45.29s-.28,1.04.09,1.48c1.06,1.26,2.11,2.53,3.17,3.79.29.34.85.39,1.23.23.41-.17.69-.58.69-1.03,0-1.36-.47-2.57-1.3-3.64l-1.59,1.59c.76.64,1.58,1.23,2.45,1.72.39.22.8.42,1.21.6.65.28,1.34.52,2,.13s.95-1.23.59-1.93c-.29-.56-.88-.73-1.44-.91-1-.32-2-.63-3-.95-.56-.18-1.25.21-1.38.79-.14.61.18,1.19.79,1.38s1.25.4,1.88.59c.29.09.58.18.88.28.17.05.33.1.5.16.07.02.14.04.2.07-.22-.06-.37-.21-.46-.46v-.6c.02-.15.68-.45.68-.46.07,0,.04,0-.08-.04l.05.02c-.18-.07-.36-.16-.54-.24-.34-.16-.67-.34-.99-.53s-.64-.39-.94-.6c-.16-.11-.32-.23-.48-.35.09.07-.02-.02-.05-.04-.09-.07-.18-.15-.27-.23-.45-.38-1.16-.47-1.59,0s-.39,1.09,0,1.59c-.11-.14.07.11.09.14.06.1.12.19.17.29s.11.2.15.31c-.07-.18.05.15.05.15.07.22.12.44.16.66-.03-.16,0,.03,0,.09.01.13.01.26.01.4l1.92-.8c-1.06-1.26-2.11-2.53-3.17-3.79l-1.36,1.77c.51.26,1.02.52,1.52.81.57.34.85.54,1.27.95.09.09.18.18.26.28.05.05.09.11.14.17-.07-.08-.06-.07.02.03.08.12.16.24.23.37.04.06.07.13.1.19.05.11.06.13.03.06-.03-.07-.02-.05.03.06.02.07.05.13.07.2.04.14.07.27.1.41-.05-.23.01.18.01.23,0,.05-.04.46,0,.23-.09.58.15,1.24.79,1.38.54.12,1.29-.16,1.38-.79h0Z"/>
  <path class="st1" d="M119.14,77.49c-.98-2.58-2.56-4.9-4.68-6.67l-1.36,1.77c2.11,1.61,4.33,3.22,6.97,3.79.57.12,1.24-.17,1.38-.79s-.19-1.19-.79-1.38c-.93-.31-1.97-.07-2.7.57s-.99,1.66-.85,2.62c.08.59.86.96,1.38.79.64-.21.87-.76.79-1.38.04.32.05-.23.02-.05-.04.2.09-.28.03-.1-.04.1.1-.18.13-.22-.12.15.05-.03.1-.07-.19.14.09-.03.11-.04-.21.1.06,0,.11-.01-.24.06.03,0,.1,0,.13,0,.13,0,0,0,.07.01.13.03.19.06l.6-2.17c-.3-.06-.59-.14-.89-.23-.16-.05-.32-.11-.49-.17-.07-.03-.14-.05-.21-.08-.02,0-.21-.09-.13-.05-.44-.19-1.1-.54-1.6-.84-1.09-.66-2.11-1.43-3.13-2.2-.45-.34-1.14-.11-1.45.29s-.34,1.12.09,1.48c.48.4.93.82,1.35,1.28.21.23.42.46.61.7.05.06.09.11.14.17.01.01.14.18.08.1s.07.09.08.1c.05.07.11.15.16.22.35.49.67,1,.96,1.53.15.27.29.55.42.83.03.07.06.13.09.2,0,.02.12.28.07.17-.04-.09.04.1.05.12.03.08.07.17.1.26.21.55.77.99,1.38.79.54-.17,1.01-.79.79-1.38h0Z"/>
  <path class="st1" d="M129.65,92.87c-1.36-1.77-2.72-3.53-4.08-5.3l-1.54,1.54c1.26.57,2.53,1.14,3.79,1.7.31.14.62.27.92.41.05.02.09.04.14.07.07.04.24.18.03,0,.11.09,0,0-.03-.05-.04-.07-.07-.14-.07-.22,0-.09-.01-.11-.01-.05,0,.13.05-.25,0-.06.07-.14.08-.18.03-.11-.03.05-.02.04.02-.02.06-.07.06-.07,0,0l.11-.08s-.25.12-.08.06c.15-.06-.08.01-.11.02-.2.07.13,0,0,0-.16,0-.32.02-.49.02-.59,0-1.15.51-1.12,1.12s.49,1.13,1.12,1.12c.98-.01,1.99-.23,2.52-1.15.28-.49.34-1.09.12-1.61-.2-.46-.57-.8-1.02-1.01-1.56-.73-3.14-1.41-4.72-2.12-.45-.2-1-.22-1.36.18-.31.34-.48.96-.18,1.36,1.36,1.77,2.72,3.53,4.08,5.3.19.24.36.43.67.52.27.07.63.04.87-.11.46-.3.79-1.04.4-1.54h0Z"/>
  <path class="st1" d="M140.2,107.96c-1.39-1.44-2.77-2.88-4.16-4.32l-1.36,1.77c2.25,1.09,4.5,2.18,6.75,3.26.53.26,1.24.16,1.54-.4.27-.5.16-1.27-.4-1.54-2.25-1.09-4.5-2.18-6.75-3.26-.51-.25-1.09-.18-1.45.29s-.3,1.07.09,1.48c1.39,1.44,2.77,2.88,4.16,4.32.41.42,1.19.44,1.59,0s.44-1.14,0-1.59h0Z"/>
  <path class="st1" d="M131.46,92.51c1.45,0,1.45-2.25,0-2.25s-1.45,2.25,0,2.25h0Z"/>
  <path class="st2" d="M36.78,50.3l.15.15c1.09,1.17,2.37,2,3.86,2.48,1.43.75,2.97,1.1,4.62,1.03,1.65.06,3.19-.28,4.62-1.03,1.49-.48,2.78-1.31,3.86-2.48l1.88-2.43c1.09-1.87,1.63-3.89,1.64-6.06l-.43-3.19c-.57-2.03-1.6-3.8-3.09-5.3l-.15-.15c-1.09-1.17-2.37-2-3.86-2.48-1.43-.75-2.97-1.1-4.62-1.03-1.65-.06-3.19.28-4.62,1.03-1.49.48-2.78,1.31-3.86,2.48l-1.88,2.43c-1.09,1.87-1.63,3.89-1.64,6.06l.43,3.19c.57,2.03,1.6,3.8,3.09,5.3h0Z"/>
  <path class="st2" d="M68.28,46.41c9.23,8.2,11.43,21.61,17.91,31.76,3.48,5.46,10.67,7.67,16.42,4.31,5.44-3.18,7.81-10.93,4.31-16.42-7.75-12.14-10.49-26.7-21.66-36.62-4.84-4.3-12.2-4.77-16.97,0-4.38,4.38-4.86,12.65,0,16.97h0Z"/>
  <path d="M70.77,129.42c-11.18-.93-22.74-4.87-29.12-14.7s-6.66-22.77-4.12-34.12c1.68-7.54,4.42-14.79,7.14-22,.68-1.81-2.22-2.59-2.89-.8-4.85,12.85-9.9,26.38-8.59,40.36.56,5.97,2.18,11.9,5.27,17.08s7.39,9.11,12.56,11.88c6.09,3.26,12.93,4.73,19.76,5.3,1.92.16,1.91-2.84,0-3h0Z"/>
  <path d="M68.09,59.85c-7.13.81-14.53-.04-21.17-2.84-5.22-2.2-10.54-6.08-12.09-11.81s1.53-11.89,5.96-15.64c5.12-4.33,12.23-5.61,18.74-5.82s13.99.29,20.2,3.2c5.73,2.68,9.89,7.39,13.15,12.7s5.94,11.47,8.9,17.21c3.42,6.62,7.13,13.08,11.03,19.43,8.8,14.3,18.57,27.98,28.34,41.63l.9-2.2c-10.91,3.65-21.88,7.14-33.09,9.76-1.88.44-1.08,3.33.8,2.89,11.21-2.62,22.18-6.12,33.09-9.76.84-.28,1.49-1.37.9-2.2-9.22-12.9-18.45-25.81-26.86-39.26-4.24-6.78-8.27-13.68-11.97-20.77-3.19-6.12-5.91-12.52-9.54-18.4s-7.92-10.65-13.93-13.52c-6.57-3.14-14.07-3.87-21.26-3.72s-14.56,1.44-20.32,5.77c-4.98,3.75-8.75,9.8-8.43,16.2s4.7,11.59,10,14.84c6.13,3.76,13.6,5.46,20.74,5.59,1.98.04,3.95-.07,5.92-.29s1.92-3.22,0-3h0Z"/>
  <path d="M64.81,74.29c-4.8,1.45-8.71,5.26-10.16,10.09s-.02,10.65,3.52,14.47c.68.73,1.86.48,2.36-.3,1.8-2.83,2.81-6.14,4.85-8.82,1.72-2.27,4.82-4.16,7.55-2.39,1.62,1.06,3.13-1.54,1.51-2.59-3.35-2.18-7.63-.87-10.27,1.8-2.92,2.95-4.04,7.04-6.23,10.48l2.36-.3c-2.83-3.06-3.95-7.54-2.75-11.56s4.28-6.85,8.06-7.99c1.84-.56,1.06-3.45-.8-2.89h0Z"/>
  <path d="M39.11,67.14c-5.02-.55-10.03,2.44-12.32,6.88-2.5,4.84-1.54,10.8,2.13,14.77.68.73,1.86.48,2.36-.3,1.94-3.05,2.87-7.27,6.07-9.32,1.62-1.04.12-3.64-1.51-2.59-3.8,2.43-4.85,6.8-7.15,10.4l2.36-.3c-2.8-3.02-3.54-7.72-1.54-11.37s5.65-5.58,9.61-5.15c.81.09,1.5-.75,1.5-1.5,0-.88-.69-1.41-1.5-1.5h0Z"/>
  <path d="M46.73,37.8c-.03.7.09,1.37.38,2,.32.69.9,1.14,1.58,1.41s1.44.19,2.06-.15c.7-.39,1.12-1.14,1.15-1.93.02-.68-.25-1.32-.71-1.82-.56-.61-1.39-.79-2.18-.65-1.44.26-2.42,1.92-1.93,3.3s1.95,2.25,3.38,1.85c1.07-.3,1.97-1.29,2.14-2.39.11-.69.05-1.34-.3-1.97-.26-.47-.71-.89-1.2-1.12-1-.47-2.28-.5-3.22.17-.57.4-.95.91-1.18,1.57-.19.55-.16,1.16-.05,1.72.23,1.12,1.12,2.07,2.21,2.39,1.16.34,2.46-.07,3.32-.89s1.19-2.13.88-3.29-1.24-2.15-2.4-2.54c-1-.34-2.22-.09-3.07.52-.98.7-1.63,1.71-1.71,2.94-.06.98.42,2.02,1.19,2.62s1.68.98,2.66.93c1.13-.06,2.09-.56,2.74-1.5.55-.8.63-1.91.38-2.82s-.87-1.78-1.7-2.27c-.48-.28-1-.41-1.55-.43-.78-.03-1.54.71-1.5,1.5.04.84.66,1.46,1.5,1.5.06,0,.13,0,.19.02l-.4-.05c.14.02.27.06.4.11l-.36-.15c.15.07.3.15.43.26l-.3-.23c.13.11.25.23.36.36l-.23-.3c.13.18.24.36.33.57l-.15-.36c.08.19.13.39.16.59l-.05-.4c.03.2.03.4,0,.6l.05-.4c-.02.15-.06.3-.12.44l.15-.36c-.06.14-.14.28-.23.4l.23-.3c-.09.11-.19.21-.3.29l.3-.23c-.12.09-.25.17-.39.23l.36-.15c-.17.07-.34.11-.52.14l.4-.05c-.21.03-.43.02-.64,0l.4.05c-.22-.03-.42-.09-.62-.17l.36.15c-.18-.08-.36-.18-.52-.3l.3.23c-.14-.11-.27-.24-.39-.38l.23.3c-.09-.12-.17-.25-.23-.39l.15.36c-.06-.15-.1-.31-.13-.47l.05.4c-.02-.14-.02-.28,0-.43l-.05.4c.02-.18.07-.35.14-.51l-.15.36c.08-.18.18-.35.29-.51l-.23.3c.13-.17.29-.33.46-.47l-.3.23c.17-.13.36-.24.56-.33l-.36.15c.18-.08.37-.13.57-.16l-.4.05c.18-.02.35-.02.53,0l-.4-.05c.15.02.28.06.42.12l-.36-.15c.16.07.3.15.44.25l-.3-.23c.15.12.28.25.4.4l-.23-.3c.13.17.23.35.31.54l-.15-.36c.07.18.12.36.14.54l-.05-.4c.02.17.02.34,0,.5l.05-.4c-.02.15-.06.29-.12.43l.15-.36c-.07.15-.15.29-.25.42l.23-.3c-.1.13-.22.24-.35.34l.3-.23c-.15.11-.3.2-.47.27l.36-.15c-.17.07-.34.12-.52.14l.4-.05c-.14.02-.29.02-.43,0l.4.05c-.14-.02-.28-.06-.42-.11l.36.15c-.13-.05-.24-.12-.35-.2l.3.23c-.12-.1-.22-.2-.32-.32l.23.3c-.09-.12-.17-.26-.23-.4l.15.36c-.07-.16-.11-.32-.14-.49l.05.4c-.02-.17-.02-.33,0-.5l-.05.4c.02-.13.06-.26.11-.38l-.15.36c.05-.11.11-.21.18-.31l-.23.3c.07-.09.15-.17.24-.24l-.3.23c.1-.08.21-.14.33-.2l-.36.15c.15-.06.31-.11.47-.13l-.4.05c.16-.02.33-.02.49,0l-.4-.05c.15.02.29.06.42.12l-.36-.15c.12.05.23.12.33.19l-.3-.23c.09.07.17.15.24.24l-.23-.3c.07.09.13.19.17.3l-.15-.36c.04.09.06.19.08.28l-.05-.4c.02.13.02.26,0,.39l.05-.4c-.02.15-.06.29-.12.43l.15-.36c-.06.14-.14.27-.23.39l.23-.3c-.08.1-.17.2-.28.28l.3-.23c-.1.08-.21.14-.33.2l.36-.15c-.09.04-.18.06-.28.08l.4-.05c-.1.01-.2.01-.3,0l.4.05c-.12-.02-.23-.04-.33-.09l.36.15c-.11-.05-.21-.1-.3-.17l.3.23c-.11-.08-.2-.18-.29-.28l.23.3c-.06-.08-.1-.16-.14-.25l.15.36c-.04-.09-.06-.18-.08-.27l.05.4c-.01-.1-.02-.19,0-.28l-.05.4c.01-.09.04-.18.07-.27l-.15.36c.04-.09.08-.16.14-.24l-.23.3c.07-.09.15-.17.24-.24l-.3.23c.08-.05.15-.1.24-.14l-.36.15c.09-.03.17-.06.26-.07l-.4.05c.07,0,.14,0,.22,0l-.4-.05c.07.01.13.03.2.05l-.36-.15c.07.03.14.07.2.12l-.3-.23c.06.05.11.11.16.17l-.23-.3c.05.06.09.13.12.2l-.15-.36c.04.09.06.18.08.27l-.05-.4c.01.09.01.18,0,.28l.05-.4c-.01.08-.03.15-.06.22l.15-.36c-.03.06-.06.11-.1.16l.23-.3s-.07.07-.11.11l.3-.23c-.06.04-.12.08-.18.11l.36-.15c-.08.03-.17.06-.26.07l.4-.05c-.09,0-.18,0-.27,0l.4.05c-.11-.02-.22-.05-.32-.09l.36.15c-.1-.05-.2-.11-.29-.18l.3.23c-.08-.06-.14-.13-.2-.21l.23.3c-.08-.11-.14-.22-.2-.34l.15.36c-.08-.19-.12-.38-.15-.57l.05.4c-.03-.22-.03-.45-.02-.67.03-.78-.71-1.54-1.5-1.5-.84.04-1.46.66-1.5,1.5h0Z"/>
  <path d="M58.32,45.59c-.03.7.09,1.37.38,2,.32.69.9,1.14,1.58,1.41s1.44.19,2.06-.15c.7-.39,1.12-1.14,1.15-1.93.02-.68-.25-1.32-.71-1.82-.56-.61-1.39-.79-2.18-.65-1.44.26-2.42,1.92-1.93,3.3s1.95,2.25,3.38,1.85c1.07-.3,1.97-1.29,2.14-2.39.11-.69.05-1.34-.3-1.97-.26-.47-.71-.89-1.2-1.12-1-.47-2.28-.5-3.22.17-.57.4-.95.91-1.18,1.57-.19.55-.16,1.16-.05,1.72.23,1.12,1.12,2.07,2.21,2.39,1.16.34,2.46-.07,3.32-.89s1.19-2.13.88-3.29-1.24-2.15-2.4-2.54c-1-.34-2.22-.09-3.07.52-.98.7-1.63,1.71-1.71,2.94-.06.98.42,2.02,1.19,2.62s1.68.98,2.66.93c1.13-.06,2.09-.56,2.74-1.5.55-.8.63-1.91.38-2.82s-.87-1.78-1.7-2.27c-.48-.28-1-.41-1.55-.43-.78-.03-1.54.71-1.5,1.5.04.84.66,1.46,1.5,1.5.06,0,.13,0,.19.02l-.4-.05c.14.02.27.06.4.11l-.36-.15c.15.07.3.15.43.26l-.3-.23c.13.11.25.23.36.36l-.23-.3c.13.18.24.36.33.57l-.15-.36c.08.19.13.39.16.59l-.05-.4c.03.2.03.4,0,.6l.05-.4c-.02.15-.06.3-.12.44l.15-.36c-.06.14-.14.28-.23.4l.23-.3c-.09.11-.19.21-.3.29l.3-.23c-.12.09-.25.17-.39.23l.36-.15c-.17.07-.34.11-.52.14l.4-.05c-.21.03-.43.02-.64,0l.4.05c-.22-.03-.42-.09-.62-.17l.36.15c-.18-.08-.36-.18-.52-.3l.3.23c-.14-.11-.27-.24-.39-.38l.23.3c-.09-.12-.17-.25-.23-.39l.15.36c-.06-.15-.1-.31-.13-.47l.05.4c-.02-.14-.02-.28,0-.43l-.05.4c.02-.18.07-.35.14-.51l-.15.36c.08-.18.18-.35.29-.51l-.23.3c.13-.17.29-.33.46-.47l-.3.23c.17-.13.36-.24.56-.33l-.36.15c.18-.08.37-.13.57-.16l-.4.05c.18-.02.35-.02.53,0l-.4-.05c.15.02.28.06.42.12l-.36-.15c.16.07.3.15.44.25l-.3-.23c.15.12.28.25.4.4l-.23-.3c.13.17.23.35.31.54l-.15-.36c.07.18.12.36.14.54l-.05-.4c.02.17.02.34,0,.5l.05-.4c-.02.15-.06.29-.12.43l.15-.36c-.07.15-.15.29-.25.42l.23-.3c-.1.13-.22.24-.35.34l.3-.23c-.15.11-.3.2-.47.27l.36-.15c-.17.07-.34.12-.52.14l.4-.05c-.14.02-.29.02-.43,0l.4.05c-.14-.02-.28-.06-.42-.11l.36.15c-.13-.05-.24-.12-.35-.2l.3.23c-.12-.1-.22-.2-.32-.32l.23.3c-.09-.12-.17-.26-.23-.4l.15.36c-.07-.16-.11-.32-.14-.49l.05.4c-.02-.17-.02-.33,0-.5l-.05.4c.02-.13.06-.26.11-.38l-.15.36c.05-.11.11-.21.18-.31l-.23.3c.07-.09.15-.17.24-.24l-.3.23c.1-.08.21-.14.33-.2l-.36.15c.15-.06.31-.11.47-.13l-.4.05c.16-.02.33-.02.49,0l-.4-.05c.15.02.29.06.42.12l-.36-.15c.12.05.23.12.33.19l-.3-.23c.09.07.17.15.24.24l-.23-.3c.07.09.13.19.17.3l-.15-.36c.04.09.06.19.08.28l-.05-.4c.02.13.02.26,0,.39l.05-.4c-.02.15-.06.29-.12.43l.15-.36c-.06.14-.14.27-.23.39l.23-.3c-.08.1-.17.2-.28.28l.3-.23c-.1.08-.21.14-.33.2l.36-.15c-.09.04-.18.06-.28.08l.4-.05c-.1.01-.2.01-.3,0l.4.05c-.12-.02-.23-.04-.33-.09l.36.15c-.11-.05-.21-.1-.3-.17l.3.23c-.11-.08-.2-.18-.29-.28l.23.3c-.06-.08-.1-.16-.14-.25l.15.36c-.04-.09-.06-.18-.08-.27l.05.4c-.01-.1-.02-.19,0-.28l-.05.4c.01-.09.04-.18.07-.27l-.15.36c.04-.09.08-.16.14-.24l-.23.3c.07-.09.15-.17.24-.24l-.3.23c.08-.05.15-.1.24-.14l-.36.15c.09-.03.17-.06.26-.07l-.4.05c.07,0,.14,0,.22,0l-.4-.05c.07.01.13.03.2.05l-.36-.15c.07.03.14.07.2.12l-.3-.23c.06.05.11.11.16.17l-.23-.3c.05.06.09.13.12.2l-.15-.36c.04.09.06.18.08.27l-.05-.4c.01.09.01.18,0,.28l.05-.4c-.01.08-.03.15-.06.22l.15-.36c-.03.06-.06.11-.1.16l.23-.3s-.07.07-.11.11l.3-.23c-.06.04-.12.08-.18.11l.36-.15c-.08.03-.17.06-.26.07l.4-.05c-.09,0-.18,0-.27,0l.4.05c-.11-.02-.22-.05-.32-.09l.36.15c-.1-.05-.2-.11-.29-.18l.3.23c-.08-.06-.14-.13-.2-.21l.23.3c-.08-.11-.14-.22-.2-.34l.15.36c-.08-.19-.12-.38-.15-.57l.05.4c-.03-.22-.03-.45-.02-.67.03-.78-.71-1.54-1.5-1.5-.84.04-1.46.66-1.5,1.5h0Z"/>
  <path d="M41.86,57.19c-.68,2.65-1,5.37-.92,8.1.03,1.13,1.25,1.88,2.26,1.3,1.26-.73,2.53-1.46,3.79-2.19.63-.36,1.26-.73,1.9-1.09.38-.22,1.23-.8,1.46-.78l-.76-.2s.17.33.25.55c.12.33.25.67.37,1,.27.73.54,1.45.8,2.18.54,1.45,1.07,2.9,1.61,4.35.36.98,1.7,1.57,2.51.66,2.3-2.58,4.6-5.16,6.91-7.74,1.28-1.44-.83-3.57-2.12-2.12-2.3,2.58-4.6,5.16-6.91,7.74l2.51.66c-.66-1.79-1.32-3.57-1.98-5.36-.29-.78-.57-1.56-.87-2.34s-.59-1.61-1.35-2.08c-1.54-.95-3.29.51-4.58,1.25-1.69.97-3.37,1.95-5.06,2.92l2.26,1.3c-.07-2.48.19-4.9.81-7.3.48-1.87-2.41-2.67-2.89-.8h0Z"/>
  <path d="M43.24,55.82c-1.53.28-3.05.57-4.58.85l-2.2.41-1.1.2-.37.07h.08c.23.08.43.22.59.43.06.17.07.2.04.09-.02-.11-.02-.08.01.09,0-.06,0-.13,0-.19,0-.14.02-.27.04-.4.05-.38.09-.75.14-1.13.08-.62.15-1.23.23-1.85.17-1.32.33-2.64.5-3.95.1-.78-.76-1.53-1.5-1.5-.9.04-1.39.66-1.5,1.5-.18,1.47-.37,2.93-.55,4.4-.09.75-.19,1.51-.28,2.26-.11.87-.1,1.71.46,2.44.77.99,1.92.82,3,.62l2.57-.48c1.74-.32,3.48-.65,5.22-.97.77-.14,1.28-1.12,1.05-1.85-.27-.83-1.02-1.2-1.85-1.05h0Z"/>
  <path d="M46.91,122.95c-1.89.74-3.72,1.62-5.44,2.7-1.46.92-3.19,1.99-4.27,3.36s-1.1,3.14.31,4.23,3.41.98,5.02,1.12c8.64.79,17.36.31,25.88-1.29,1.9-.36,1.09-3.25-.8-2.89-6.68,1.25-13.48,1.76-20.27,1.5-1.61-.06-3.22-.17-4.82-.31-.81-.07-1.65-.12-2.45-.27-.2-.04-.48-.05-.66-.17-.06.23-.04.24.06.05.06-.1.13-.19.22-.27.98-1.09,2.42-1.94,3.67-2.7,1.39-.84,2.84-1.57,4.35-2.17,1.78-.7,1-3.6-.8-2.89h0Z"/>
  <path d="M60.99,22.33c2.57-2.18,5.13-4.36,7.7-6.53l-2.51-.66c.35,2.39.7,4.78,1.05,7.17.11.78,1.14,1.28,1.85,1.05.85-.28,1.17-1.01,1.05-1.85-.35-2.39-.7-4.78-1.05-7.17-.07-.5-.59-.92-1.05-1.05-.55-.15-1.04.03-1.46.39-2.57,2.18-5.13,4.36-7.7,6.53-.6.51-.56,1.6,0,2.12.64.59,1.48.54,2.12,0h0Z"/>
  <path d="M75.22,24.49c3.34-.87,6.68-1.73,10.02-2.6l1.24-.32c.15-.04.4-.06.54-.14-.32.19-1.01-.61-.81-.82-.12.13-.22.77-.29,1.01-.11.4-.23.81-.34,1.21-.47,1.66-.94,3.32-1.41,4.97-.53,1.86,2.37,2.65,2.89.8s1.1-3.88,1.65-5.82c.26-.92.69-1.93.38-2.89-.39-1.22-1.64-1.59-2.79-1.37-1.95.37-3.89,1-5.82,1.5s-4.04,1.05-6.06,1.57c-1.87.48-1.08,3.38.8,2.89h0Z"/>
  <path d="M90.88,35.18c3.81,1.4,7.54,3,11.19,4.78l-.3-2.36c-1.76,1.99-3.53,3.97-5.29,5.96-.54.61-.6,1.52,0,2.12.55.55,1.58.61,2.12,0,1.76-1.99,3.53-3.97,5.29-5.96.59-.67.62-1.91-.3-2.36-3.88-1.89-7.86-3.59-11.91-5.08-.76-.28-1.64.31-1.85,1.05-.23.84.28,1.56,1.05,1.85h0Z"/>
  <path d="M100.76,52.59c3.81,1.4,7.54,3,11.19,4.78l-.3-2.36c-1.76,1.99-3.53,3.97-5.29,5.96-.54.61-.6,1.52,0,2.12.55.55,1.58.61,2.12,0,1.76-1.99,3.53-3.97,5.29-5.96.59-.67.62-1.91-.3-2.36-3.88-1.89-7.86-3.59-11.91-5.08-.76-.28-1.64.31-1.85,1.05-.23.84.28,1.56,1.05,1.85h0Z"/>
  <path d="M111.1,70.56c3.81,1.4,7.54,3,11.19,4.78l-.3-2.36c-1.76,1.99-3.53,3.97-5.29,5.96-.54.61-.6,1.52,0,2.12.55.55,1.58.61,2.12,0,1.76-1.99,3.53-3.97,5.29-5.96.59-.67.62-1.91-.3-2.36-3.88-1.89-7.86-3.59-11.91-5.08-.76-.28-1.64.31-1.85,1.05-.23.84.28,1.56,1.05,1.85h0Z"/>
  <path d="M121.75,86.88c3.81,1.4,7.54,3,11.19,4.78l-.3-2.36c-1.76,1.99-3.53,3.97-5.29,5.96-.54.61-.6,1.52,0,2.12.55.55,1.58.61,2.12,0,1.76-1.99,3.53-3.97,5.29-5.96.59-.67.62-1.91-.3-2.36-3.88-1.89-7.86-3.59-11.91-5.08-.76-.28-1.64.31-1.85,1.05-.23.84.28,1.56,1.05,1.85h0Z"/>
  <path d="M131.29,102.43c3.81,1.4,7.54,3,11.19,4.78l-.3-2.36c-1.44,1.63-2.89,3.25-4.33,4.88-.54.61-.6,1.52,0,2.12.55.55,1.58.61,2.12,0,1.44-1.63,2.89-3.25,4.33-4.88.59-.67.62-1.91-.3-2.36-3.88-1.89-7.86-3.59-11.91-5.08-.76-.28-1.64.31-1.85,1.05-.23.84.28,1.56,1.05,1.85h0Z"/>
  <path d="M85.44,109.66c-6.06,3.67-11.05,9.11-14.05,15.54-1.39,2.96-2,6.39-3.81,9.14-.95,1.45-2.25,1.88-3.68,2.72s-2.56,2.48-2,4.19c.6,1.85,2.57,2.05,4.22,2.03,2.22-.02,4.44-.05,6.66-.07,4.52-.05,9.05-.09,13.57-.14s9.05-.09,13.57-.14c3.64-.04,7.3-.62,9.04-4.23.88-1.82,1.16-3.81,1.4-5.8.28-2.3.4-4.63.37-6.95-.08-4.86-.84-9.7-2.23-14.35-.55-1.85-3.45-1.06-2.89.8,2.12,7.11,2.9,15.01,1.47,22.34-.25,1.27-.59,2.62-1.44,3.63-1.14,1.36-3.02,1.5-4.67,1.55-3.88.11-7.78.08-11.66.12-7.89.08-15.8.34-23.68.24-.17,0-.81.08-.94-.08.14.17.25-.22.4-.36.52-.5,1.41-.69,2.03-1.04,1.21-.68,2.18-1.67,2.95-2.81,1.61-2.36,2.23-5.25,3.29-7.87,2.65-6.59,7.53-12.2,13.59-15.88,1.65-1,.14-3.59-1.51-2.59h0Z"/>
</svg>